<svg width="20" height="20" viewBox="0 0 20 20" fill="none" xmlns="http://www.w3.org/2000/svg">
    <g clip-path="url(#clip0_169_4662)">
        <path d="M5 0C4.33696 0 3.70107 0.263392 3.23223 0.732233C2.76339 1.20107 2.5 1.83696 2.5 2.5V17.5C2.5 18.163 2.76339 18.7989 3.23223 19.2678C3.70107 19.7366 4.33696 20 5 20H15C15.663 20 16.2989 19.7366 16.7678 19.2678C17.2366 18.7989 17.5 18.163 17.5 17.5V2.5C17.5 1.83696 17.2366 1.20107 16.7678 0.732233C16.2989 0.263392 15.663 0 15 0L5 0ZM5 1.25H15C15.3315 1.25 15.6495 1.3817 15.8839 1.61612C16.1183 1.85054 16.25 2.16848 16.25 2.5V17.5C16.25 17.8315 16.1183 18.1495 15.8839 18.3839C15.6495 18.6183 15.3315 18.75 15 18.75H5C4.66848 18.75 4.35054 18.6183 4.11612 18.3839C3.8817 18.1495 3.75 17.8315 3.75 17.5V2.5C3.75 2.16848 3.8817 1.85054 4.11612 1.61612C4.35054 1.3817 4.66848 1.25 5 1.25Z" fill="#FF6900"/>
        <path d="M5.75388 15.1088C5.51024 15.0114 5.31395 14.8232 5.20637 14.5838C4.96262 14.0988 5.04387 13.6138 5.30637 13.2063C5.55387 12.8226 5.96388 12.4963 6.42763 12.2226C7.01505 11.8894 7.63599 11.6192 8.28013 11.4163C8.78035 10.517 9.22372 9.58731 9.60763 8.63257C9.3781 8.11103 9.19814 7.56906 9.07013 7.01382C8.96263 6.51382 8.92138 6.01882 9.01263 5.59382C9.10638 5.15132 9.35513 4.75382 9.82513 4.56507C10.0651 4.46882 10.3251 4.41507 10.5776 4.46882C10.7046 4.49586 10.824 4.55083 10.9272 4.62974C11.0303 4.70866 11.1146 4.80954 11.1739 4.92507C11.2839 5.13007 11.3239 5.37007 11.3326 5.59757C11.3414 5.83132 11.3176 6.09132 11.2739 6.36507C11.1689 7.00257 10.9364 7.78257 10.6239 8.60757C10.9687 9.34509 11.3787 10.0504 11.8489 10.7151C12.4053 10.6711 12.9649 10.6921 13.5164 10.7776C13.9714 10.8588 14.4339 11.0213 14.7164 11.3588C14.8664 11.5388 14.9576 11.7588 14.9664 12.0063C14.9751 12.2463 14.9076 12.4838 14.7939 12.7101C14.6953 12.9197 14.5426 13.0993 14.3514 13.2301C14.1624 13.3533 13.9392 13.4137 13.7139 13.4026C13.3001 13.3851 12.8964 13.1576 12.5476 12.8813C12.1236 12.5307 11.7415 12.1322 11.4089 11.6938C10.5636 11.7897 9.72828 11.9595 8.91263 12.2013C8.53868 12.8638 8.11188 13.495 7.63638 14.0888C7.27388 14.5263 6.87638 14.9076 6.47888 15.0726C6.25049 15.1759 5.99143 15.1888 5.75388 15.1088ZM7.47763 12.7326C7.27013 12.8276 7.07763 12.9276 6.90387 13.0301C6.49387 13.2726 6.22763 13.5088 6.09512 13.7138C5.97762 13.8951 5.97513 14.0263 6.04513 14.1651C6.05763 14.1926 6.07013 14.2101 6.07763 14.2201C6.09253 14.2161 6.10715 14.2111 6.12137 14.2051C6.29262 14.1351 6.56513 13.9113 6.91513 13.4901C7.11418 13.2464 7.30188 12.9936 7.47763 12.7326ZM9.52763 11.0701C9.94501 10.9726 10.3662 10.8921 10.7901 10.8288C10.5624 10.4806 10.3497 10.1227 10.1526 9.75632C9.9566 10.1996 9.74819 10.6372 9.52763 11.0688V11.0701ZM12.5851 11.6326C12.7726 11.8351 12.9551 12.0076 13.1289 12.1451C13.4289 12.3826 13.6376 12.4613 13.7514 12.4651C13.7818 12.4691 13.8127 12.4624 13.8389 12.4463C13.8909 12.4053 13.9314 12.3514 13.9564 12.2901C14.0008 12.2139 14.0261 12.1281 14.0301 12.0401C14.0294 12.0107 14.0178 11.9826 13.9976 11.9613C13.9326 11.8838 13.7476 11.7713 13.3501 11.7001C13.0973 11.6578 12.8415 11.6357 12.5851 11.6338V11.6326ZM10.0976 7.25007C10.2028 6.91072 10.2863 6.56502 10.3476 6.21507C10.3864 5.98007 10.4014 5.78632 10.3951 5.63382C10.3955 5.54968 10.382 5.46606 10.3551 5.38632C10.2926 5.39406 10.2315 5.4109 10.1739 5.43632C10.0651 5.48007 9.97638 5.56882 9.92888 5.79007C9.87888 6.03007 9.89138 6.37632 9.98638 6.81757C10.0164 6.95632 10.0539 7.10132 10.0989 7.25007H10.0976Z" fill="#FF6900"/>
    </g>
    <defs>
        <clipPath id="clip0_169_4662">
            <rect width="20" height="20" fill="white"/>
        </clipPath>
    </defs>
</svg>
