<svg width="20" height="20" viewBox="0 0 20 20" fill="none" xmlns="http://www.w3.org/2000/svg">
    <path fill-rule="evenodd" clip-rule="evenodd" d="M9.9998 3.20005C6.24427 3.20005 3.1998 6.24451 3.1998 10C3.1998 13.7556 6.24427 16.8 9.9998 16.8C13.7553 16.8 16.7998 13.7556 16.7998 10C16.7998 6.24451 13.7553 3.20005 9.9998 3.20005ZM1.7998 10C1.7998 5.47131 5.47107 1.80005 9.9998 1.80005C14.5285 1.80005 18.1998 5.47131 18.1998 10C18.1998 14.5288 14.5285 18.2 9.9998 18.2C5.47107 18.2 1.7998 14.5288 1.7998 10ZM9.49868 5.17293C10.0815 5.08045 10.6784 5.15087 11.2238 5.37663C11.7692 5.60242 12.2414 5.9748 12.5883 6.45211C12.9355 6.92973 13.1432 7.49371 13.1896 8.08183C13.236 8.67027 13.1186 9.26013 12.8508 9.78597C12.5829 10.3118 12.1752 10.7531 11.6719 11.0616C11.3704 11.2464 11.0418 11.379 10.6998 11.4557V11.6669C10.6998 12.0535 10.3864 12.3669 9.9998 12.3669C9.6132 12.3669 9.2998 12.0535 9.2998 11.6669V10.8332C9.2998 10.4466 9.6132 10.1332 9.9998 10.1332C10.3318 10.1332 10.6573 10.0414 10.9404 9.8679C11.2233 9.69448 11.4526 9.4464 11.6033 9.15049C11.754 8.85462 11.82 8.52276 11.7939 8.19186C11.7678 7.86065 11.6509 7.54355 11.4559 7.27521C11.2606 7.00655 10.9949 6.7971 10.6883 6.67018C10.3816 6.54322 10.046 6.5036 9.71805 6.55563C9.39004 6.60767 9.08251 6.74949 8.83023 6.9651C8.57777 7.18085 8.39014 7.4618 8.28769 7.77747C8.16836 8.14519 7.77352 8.34655 7.4058 8.22721C7.03808 8.10787 6.83672 7.71304 6.95606 7.34532C7.13827 6.78384 7.47209 6.28418 7.92068 5.90081C8.36945 5.51728 8.9159 5.26539 9.49868 5.17293ZM9.2583 14.1667C9.2583 13.7801 9.5717 13.4667 9.9583 13.4667H10.0413C10.4279 13.4667 10.7413 13.7801 10.7413 14.1667V14.25C10.7413 14.6361 10.4287 14.9493 10.0427 14.95L9.95967 14.9502C9.77378 14.9506 9.59538 14.877 9.46381 14.7457C9.33224 14.6144 9.2583 14.4361 9.2583 14.2502V14.1667Z" fill="#616D94"/>
</svg>
