 <svg width="16" height="16" viewBox="0 0 16 16" fill="none" xmlns="http://www.w3.org/2000/svg">
        <path fill-rule="evenodd" clip-rule="evenodd" d="M3.60396 3.60396C3.82266 3.38527 4.17723 3.38527 4.39592 3.60396L7.99995 7.20799L11.604 3.60396C11.8227 3.38527 12.1772 3.38527 12.3959 3.60396C12.6146 3.82266 12.6146 4.17723 12.3959 4.39592L8.79191 7.99995L12.3959 11.6039C12.6146 11.8226 12.6146 12.1772 12.3959 12.3959C12.1772 12.6146 11.8226 12.6146 11.6039 12.3959L7.99995 8.79191L4.39592 12.3959C4.17723 12.6146 3.82266 12.6146 3.60396 12.3959C3.38527 12.1772 3.38527 11.8227 3.60396 11.604L7.20799 7.99995L3.60396 4.39592C3.38527 4.17723 3.38527 3.82266 3.60396 3.60396Z" fill="#1A47A9"/>
    </svg>