<svg width="236" height="40" viewBox="0 0 236 40" fill="none" xmlns="http://www.w3.org/2000/svg">
<g clip-path="url(#clip0_18_3052)">
<mask id="mask0_18_3052" style="mask-type:luminance" maskUnits="userSpaceOnUse" x="0" y="0" width="236" height="40">
<path d="M236 0H0V40H236V0Z" fill="white"/>
</mask>
<g mask="url(#mask0_18_3052)">
<path fill-rule="evenodd" clip-rule="evenodd" d="M8.30848 0C6.07374 2.04173 0 7.19396 0 12.7863C0 17.3577 3.72391 21.0699 8.30848 21.0699C12.8921 21.0699 16.6159 17.3577 16.6159 12.7863C16.6159 7.19396 10.5422 2.04173 8.30848 0ZM8.30848 3.86691C6.74827 5.29293 2.50696 8.89041 2.50696 12.7953C2.50696 15.9876 5.10698 18.5801 8.30848 18.5801C11.509 18.5801 14.109 15.9876 14.109 12.7953C14.109 8.89041 9.8687 5.29293 8.30848 3.86691Z" fill="#1A47A9"/>
<path d="M8.28432 11.5093C7.37762 11.8337 5.37605 12.6689 4.14209 11.7639C4.53841 14.6189 7.00433 13.9922 8.33136 13.5741C9.09896 13.3426 11.2407 12.4145 12.4736 13.3186C12.0783 10.4646 9.61136 11.0224 8.28432 11.5093Z" fill="#FF6900" stroke="#FF6900" stroke-width="0.211975"/>
<path d="M30.3548 18.5424V4.63944H28.1782V10.5541H23.0561V4.63944H20.8794V18.5424H23.0561V12.3393H28.1782V18.5424H30.3548ZM41.6427 13.3572C41.6427 10.2857 40.0254 7.98045 37.0791 7.98045C34.1327 7.98045 32.5145 10.2857 32.5145 13.3572C32.5145 16.4298 34.1327 18.7569 37.0791 18.7569C40.0254 18.7569 41.6427 16.4298 41.6427 13.3572ZM39.5249 13.3383C39.5249 15.5655 38.7154 17.0445 37.0791 17.0445C35.4418 17.0445 34.6332 15.5655 34.6332 13.3383C34.6332 11.1109 35.4418 9.65095 37.0791 9.65095C38.7154 9.65095 39.5249 11.1109 39.5249 13.3383ZM51.8916 15.7771C51.8916 14.1645 50.5826 13.4341 49.5618 13.2035V13.1657C50.5626 12.9351 51.5834 12.0329 51.5834 10.7846C51.5834 9.03724 50.0231 7.98045 47.289 7.98045C45.999 7.98045 44.67 8.24989 43.7073 8.71092V18.0235C44.67 18.5034 46.018 18.7569 47.3471 18.7569C50.3314 18.7569 51.8916 17.755 51.8916 15.7771ZM49.5618 10.9383C49.5618 11.5141 49.3306 12.013 48.9643 12.2825C48.579 12.5699 48.1747 12.6467 47.3271 12.6467H45.7098V9.59407C46.0561 9.4404 46.7115 9.30567 47.289 9.30567C48.8102 9.30567 49.5618 9.93935 49.5618 10.9383ZM49.812 15.6813C49.812 16.8329 49.0224 17.4287 47.3471 17.4287C46.7686 17.4287 46.0951 17.3129 45.7098 17.1403V13.8951H47.3661C48.2137 13.8951 48.5981 13.9909 49.0034 14.2214C49.5228 14.5098 49.812 15.0287 49.812 15.6813ZM62.66 13.3572C62.66 10.2857 61.0428 7.98045 58.0965 7.98045C55.1492 7.98045 53.5319 10.2857 53.5319 13.3572C53.5319 16.4298 55.1492 18.7569 58.0965 18.7569C61.0428 18.7569 62.66 16.4298 62.66 13.3572ZM60.5424 13.3383C60.5424 15.5655 59.7327 17.0445 58.0965 17.0445C56.4592 17.0445 55.6505 15.5655 55.6505 13.3383C55.6505 11.1109 56.4592 9.65095 58.0965 9.65095C59.7327 9.65095 60.5424 11.1109 60.5424 13.3383ZM71.5419 18.0434L70.8484 16.4877C70.4241 16.795 69.7885 16.9866 69.1531 16.9866C67.805 16.9866 66.496 15.8729 66.496 13.3383C66.496 10.8035 67.7671 9.70883 69.1531 9.70883C69.7885 9.70883 70.4241 9.90143 70.8484 10.2088L71.5419 8.69097C70.9065 8.26884 70.0197 7.98045 68.8838 7.98045C66.5731 7.98045 64.3203 9.61304 64.3203 13.3572C64.3203 17.1024 66.5731 18.7569 68.8838 18.7569C70.0197 18.7569 70.8865 18.4845 71.5419 18.0434ZM82.1562 18.5424V8.19201H80.0376L75.8784 14.7593C75.531 15.2971 75.2428 15.9687 75.2428 15.9687H75.2038C75.2038 15.9687 75.2428 15.2203 75.2428 14.5867V8.19201H73.3744V18.5424H75.4159L79.6713 11.8025C80.0185 11.2457 80.2878 10.592 80.2878 10.592H80.3268C80.3268 10.592 80.2878 11.3225 80.2878 11.9561V18.5424H82.1562ZM93.367 13.3383C93.367 10.3614 91.9038 8.05728 88.9575 8.05728C88.0909 8.05728 87.3973 8.24989 86.8009 8.51832C87.4934 6.4257 89.1497 5.40783 92.3472 5.00467V3.25732C86.2804 3.94788 84.3359 6.90569 84.3359 12.2625C84.3359 16.1613 85.8371 18.7569 88.8995 18.7569C91.7688 18.7569 93.367 16.4298 93.367 13.3383ZM91.2873 13.3383C91.2873 15.4508 90.4977 17.0445 88.9385 17.0445C87.2622 17.0445 86.3575 15.2393 86.3575 12.3593C86.3575 11.4951 86.4156 10.7267 86.5116 10.0351C87.1471 9.74775 87.8787 9.55516 88.6303 9.55516C90.4016 9.55516 91.2873 11.1488 91.2873 13.3383ZM104.193 18.5424V8.19201H102.076L97.9155 14.7593C97.5692 15.2971 97.28 15.9687 97.28 15.9687H97.242C97.242 15.9687 97.28 15.2203 97.28 14.5867V8.19201H95.4126V18.5424H97.4532L101.709 11.8025C102.056 11.2457 102.326 10.592 102.326 10.592H102.364C102.364 10.592 102.326 11.3225 102.326 11.9561V18.5424H104.193ZM115.232 13.2803C115.232 9.99723 113.422 7.98045 110.187 7.98045C108.761 7.98045 107.356 8.32673 106.623 8.71092V22.6548H108.723V18.4076C109.069 18.5234 109.782 18.6611 110.417 18.6611C113.557 18.6611 115.232 16.4487 115.232 13.2803ZM113.132 13.2803C113.132 15.4508 112.132 17.0255 110.226 17.0255C109.666 17.0255 108.992 16.9098 108.723 16.795V9.90143C109.012 9.76671 109.647 9.63199 110.226 9.63199C112.112 9.63199 113.132 11.0341 113.132 13.2803ZM124.133 18.0434L123.439 16.4877C123.015 16.795 122.38 16.9866 121.744 16.9866C120.396 16.9866 119.087 15.8729 119.087 13.3383C119.087 10.8035 120.358 9.70883 121.744 9.70883C122.38 9.70883 123.015 9.90143 123.439 10.2088L124.133 8.69097C123.497 8.26884 122.61 7.98045 121.474 7.98045C119.164 7.98045 116.91 9.61304 116.91 13.3572C116.91 17.1024 119.164 18.7569 121.474 18.7569C122.61 18.7569 123.477 18.4845 124.133 18.0434ZM134.593 18.5424L132.725 15.1245C132.147 14.0487 131.376 13.2614 130.26 12.8583L134.458 8.19201H131.993L128.103 12.8393H128.064V8.19201H125.984V18.5424H128.064V13.6067C129.258 13.6067 130.106 14.414 130.606 15.374L132.263 18.5424H134.593ZM143.666 13.3572C143.666 9.74775 141.394 7.98045 138.371 7.98045C137.273 7.98045 136.098 8.24989 135.405 8.71092L136.021 10.0741C136.522 9.74775 137.447 9.49828 138.236 9.49828C139.873 9.49828 141.278 10.4004 141.529 12.5319H136.58V13.9909H141.549C141.355 16.2571 139.931 17.2171 138.236 17.2171C137.447 17.2171 136.522 16.9677 136.021 16.6413L135.405 18.0235C136.098 18.4845 137.273 18.7569 138.371 18.7569C141.394 18.7569 143.666 16.9677 143.666 13.3572ZM153.877 18.5424V8.19201H151.758V12.5699H147.81V8.19201H145.712V18.5424H147.81V14.0109H151.758V18.5424H153.877ZM164.895 12.5319C164.895 9.74775 163.298 7.98045 160.601 7.98045C157.693 7.98045 155.921 10.1888 155.921 13.3572C155.921 16.6603 157.751 18.7569 161.025 18.7569C162.45 18.7569 163.836 18.4466 164.645 18.0235L164.029 16.4487C163.316 16.8329 162.2 17.0824 161.159 17.0824C159.408 17.0824 158.193 16.1424 157.983 14.2793L164.877 13.3193C164.895 13.0499 164.895 12.7814 164.895 12.5319ZM162.873 12.2057L157.847 12.8971C157.885 10.7457 158.945 9.51723 160.562 9.51723C161.95 9.51723 162.855 10.4004 162.873 12.2057ZM175.549 13.2803C175.549 9.99723 173.738 7.98045 170.503 7.98045C169.078 7.98045 167.672 8.32673 166.94 8.71092V22.6548H169.04V18.4076C169.387 18.5234 170.099 18.6611 170.734 18.6611C173.874 18.6611 175.549 16.4487 175.549 13.2803ZM173.45 13.2803C173.45 15.4508 172.448 17.0255 170.541 17.0255C169.983 17.0255 169.31 16.9098 169.04 16.795V9.90143C169.328 9.76671 169.963 9.63199 170.541 9.63199C172.429 9.63199 173.45 11.0341 173.45 13.2803ZM183.64 9.84355V8.19201H177.651V18.5424H179.77V9.84355H183.64ZM193.715 13.3572C193.715 10.2857 192.098 7.98045 189.152 7.98045C186.205 7.98045 184.587 10.2857 184.587 13.3572C184.587 16.4298 186.205 18.7569 189.152 18.7569C192.098 18.7569 193.715 16.4298 193.715 13.3572ZM191.597 13.3383C191.597 15.5655 190.789 17.0445 189.152 17.0445C187.514 17.0445 186.706 15.5655 186.706 13.3383C186.706 11.1109 187.514 9.65095 189.152 9.65095C190.789 9.65095 191.597 11.1109 191.597 13.3383ZM202.597 18.0434L201.903 16.4877C201.481 16.795 200.844 16.9866 200.209 16.9866C198.861 16.9866 197.552 15.8729 197.552 13.3383C197.552 10.8035 198.822 9.70883 200.209 9.70883C200.844 9.70883 201.481 9.90143 201.903 10.2088L202.597 8.69097C201.962 8.26884 201.076 7.98045 199.939 7.98045C197.629 7.98045 195.375 9.61304 195.375 13.3572C195.375 17.1024 197.629 18.7569 199.939 18.7569C201.076 18.7569 201.942 18.4845 202.597 18.0434ZM213.212 13.3383C213.212 10.3614 211.749 8.05728 208.801 8.05728C207.936 8.05728 207.242 8.24989 206.644 8.51832C207.337 6.4257 208.995 5.40783 212.191 5.00467V3.25732C206.125 3.94788 204.179 6.90569 204.179 12.2625C204.179 16.1613 205.681 18.7569 208.744 18.7569C211.613 18.7569 213.212 16.4298 213.212 13.3383ZM211.132 13.3383C211.132 15.4508 210.342 17.0445 208.782 17.0445C207.107 17.0445 206.202 15.2393 206.202 12.3593C206.202 11.4951 206.259 10.7267 206.357 10.0351C206.992 9.74775 207.723 9.55516 208.473 9.55516C210.246 9.55516 211.132 11.1488 211.132 13.3383ZM226.696 18.5424V8.19201H224.596V18.5424H226.696ZM223.094 15.3929C223.094 13.3193 221.631 12.013 218.818 12.013C218.337 12.013 217.702 12.1099 217.336 12.2057V8.19201H215.256V18.0235C216.162 18.4845 217.51 18.7569 218.741 18.7569C221.534 18.7569 223.094 17.5245 223.094 15.3929ZM221.034 15.3929C221.034 16.6992 220.244 17.3708 218.741 17.3708C218.222 17.3708 217.643 17.2361 217.336 17.1024V13.5687C217.643 13.4729 218.222 13.3961 218.646 13.3961C220.283 13.3961 221.034 14.1445 221.034 15.3929ZM236 9.86251V8.19201H228.393V9.86251H231.148V18.5424H233.266V9.86251H236Z" fill="#0033A0"/>
<path d="M101.1 35.8954H99.465V32.0433H97.3067V35.8954H95.6714V27.1094H97.3067V30.601H99.465V27.1094H101.1V35.8954Z" fill="#FF7819"/>
<path d="M106.049 35.8954L105.731 34.982H105.694C105.458 35.3746 105.214 35.6451 104.962 35.7933C104.708 35.9416 104.39 36.0156 104.005 36.0156C103.512 36.0156 103.124 35.8313 102.839 35.4628C102.558 35.0942 102.418 34.5814 102.418 33.9243C102.418 33.2192 102.611 32.6963 102.996 32.3558C103.383 32.0112 103.963 31.821 104.733 31.7849L105.622 31.7489V31.268C105.622 30.6431 105.351 30.3306 104.811 30.3306C104.41 30.3306 103.949 30.4868 103.428 30.7993L102.874 29.6936C103.54 29.2729 104.264 29.0625 105.046 29.0625C105.755 29.0625 106.293 29.2669 106.663 29.6755C107.035 30.0801 107.222 30.6551 107.222 31.4002V35.8954H106.049ZM104.661 34.7657C104.953 34.7657 105.185 34.6354 105.358 34.375C105.534 34.1106 105.622 33.76 105.622 33.3233V32.7585L105.13 32.7825C104.765 32.8025 104.496 32.9067 104.323 33.095C104.155 33.2833 104.071 33.5637 104.071 33.9363C104.071 34.4893 104.268 34.7657 104.661 34.7657Z" fill="#FF7819"/>
<path d="M113.74 29.2007V35.8954H112.129V30.4928H110.319V35.8954H108.719V29.2007H113.74Z" fill="#FF7819"/>
<path d="M120.27 32.536C120.27 33.6337 120.038 34.4891 119.572 35.1021C119.107 35.7111 118.47 36.0155 117.66 36.0155C117.147 36.0155 116.695 35.8753 116.302 35.5949C115.909 35.3144 115.606 34.9118 115.394 34.3869C115.181 33.8581 115.076 33.2411 115.076 32.536C115.076 31.4503 115.306 30.6029 115.766 29.9938C116.228 29.3809 116.867 29.0745 117.685 29.0745C118.474 29.0745 119.101 29.3869 119.567 30.0119C120.036 30.6329 120.27 31.4743 120.27 32.536ZM116.71 32.536C116.71 33.233 116.787 33.7599 116.939 34.1165C117.091 34.473 117.336 34.6514 117.673 34.6514C118.314 34.6514 118.634 33.9463 118.634 32.536C118.634 31.8349 118.556 31.312 118.4 30.9675C118.247 30.6189 118.005 30.4446 117.673 30.4446C117.336 30.4446 117.091 30.6189 116.939 30.9675C116.787 31.312 116.71 31.8349 116.71 32.536Z" fill="#FF7819"/>
<path d="M126.451 35.8954H124.846V30.4928H123.95C123.87 31.8509 123.74 32.9287 123.56 33.7259C123.383 34.5232 123.145 35.1021 122.844 35.4627C122.548 35.8232 122.153 36.0036 121.659 36.0036C121.359 36.0036 121.112 35.9595 120.92 35.8714V34.5552C121.04 34.5953 121.163 34.6154 121.287 34.6154C121.623 34.6154 121.886 34.1866 122.075 33.3293C122.263 32.4679 122.407 31.0918 122.508 29.2007H126.451V35.8954Z" fill="#FF7819"/>
<path d="M129.608 29.2007V31.8089H131.418V29.2007H133.029V35.8954H131.418V33.0889H129.608V35.8954H128.009V29.2007H129.608Z" fill="#FF7819"/>
<path d="M135.753 35.8954H133.944L135.61 33.149C134.804 32.8285 134.401 32.2055 134.401 31.28C134.401 30.6269 134.617 30.1181 135.05 29.7536C135.488 29.385 136.087 29.2007 136.848 29.2007H139.313V35.8954H137.714V33.3714H137.136L135.753 35.8954ZM136.024 31.2921C136.024 31.893 136.357 32.1935 137.023 32.1935H137.714V30.3966H136.89C136.313 30.3966 136.024 30.695 136.024 31.2921Z" fill="#FF7819"/>
<path d="M142.043 35.8954H140.233L141.899 33.149C141.093 32.8285 140.691 32.2055 140.691 31.28C140.691 30.6269 140.908 30.1181 141.34 29.7536C141.777 29.385 142.376 29.2007 143.137 29.2007H145.603V35.8954H144.003V33.3714H143.427L142.043 35.8954ZM142.314 31.2921C142.314 31.893 142.647 32.1935 143.312 32.1935H144.003V30.3966H143.179C142.603 30.3966 142.314 30.695 142.314 31.2921Z" fill="#FF7819"/>
<path d="M153.192 32.4098V29.2007H154.731V32.4098L156.409 29.2007H158.068L156.27 32.3738L158.182 35.8954H156.444L154.731 32.4519V35.8954H153.192V32.4519L151.472 35.8954H149.735L151.64 32.3738L149.855 29.2007H151.52L153.192 32.4098Z" fill="#FF7819"/>
<path d="M160.557 29.2007V32.3016C160.557 32.6862 160.51 33.3253 160.413 34.2187L162.59 29.2007H164.55V35.8954H163.059V32.7463C163.059 32.2736 163.105 31.6366 163.197 30.8354L161.015 35.8954H159.072V29.2007H160.557Z" fill="#FF7819"/>
<path d="M167.484 31.8088C167.849 31.8088 168.119 31.7507 168.296 31.6346C168.476 31.5184 168.567 31.3181 168.567 31.0335C168.567 30.5728 168.26 30.3425 167.646 30.3425C167.43 30.3425 167.23 30.3745 167.045 30.4386C166.861 30.4987 166.662 30.5949 166.45 30.7271L165.873 29.5672C166.43 29.2387 167.049 29.0745 167.73 29.0745C168.44 29.0745 169.006 29.2327 169.426 29.5491C169.847 29.8656 170.057 30.2984 170.057 30.8473C170.057 31.6125 169.635 32.1132 168.789 32.3496V32.3977C169.254 32.506 169.608 32.7042 169.853 32.9927C170.098 33.2811 170.22 33.6497 170.22 34.0985C170.22 34.6914 169.993 35.1601 169.54 35.5047C169.092 35.8452 168.468 36.0155 167.671 36.0155C167.301 36.0155 166.949 35.9755 166.613 35.8953C166.279 35.8112 165.999 35.705 165.771 35.5768V34.2367C166.328 34.5451 166.912 34.6994 167.52 34.6994C168.25 34.6994 168.615 34.429 168.615 33.8881C168.615 33.5997 168.527 33.3813 168.35 33.233C168.178 33.0808 167.889 33.0047 167.484 33.0047H166.829V31.8088H167.484Z" fill="#FF7819"/>
<path d="M173.118 29.2007V31.8089H174.928V29.2007H176.539V35.8954H174.928V33.0889H173.118V35.8954H171.52V29.2007H173.118Z" fill="#FF7819"/>
<path d="M179.697 31.8209H180.262C181.156 31.8209 181.814 31.9831 182.234 32.3077C182.659 32.6322 182.871 33.1229 182.871 33.78C182.871 35.1902 181.986 35.8954 180.214 35.8954H178.098V29.2007H179.697V31.8209ZM181.224 33.8161C181.224 33.5317 181.137 33.3272 180.965 33.203C180.797 33.0789 180.527 33.0168 180.153 33.0168H179.697V34.6995H180.178C180.51 34.6995 180.767 34.6334 180.948 34.5012C181.132 34.365 181.224 34.1366 181.224 33.8161Z" fill="#FF7819"/>
<path d="M188.639 36.0155C188.029 36.0155 187.486 35.8733 187.009 35.5888V34.2727C187.405 34.465 187.712 34.5892 187.929 34.6453C188.145 34.6974 188.356 34.7235 188.56 34.7235C188.941 34.7235 189.245 34.5812 189.474 34.2968C189.703 34.0123 189.837 33.6096 189.877 33.0888H187.971V31.9169H189.877C189.865 31.3961 189.76 31.0035 189.564 30.7391C189.371 30.4747 189.099 30.3425 188.746 30.3425C188.518 30.3425 188.307 30.3765 188.115 30.4446C187.927 30.5127 187.718 30.6029 187.489 30.7151L187.045 29.5191C187.622 29.2227 188.206 29.0745 188.795 29.0745C190.618 29.0745 191.53 30.2082 191.53 32.4759C191.53 33.6056 191.284 34.4791 190.79 35.0961C190.298 35.709 189.581 36.0155 188.639 36.0155Z" fill="#FF7819"/>
<path d="M194.465 29.2007V31.8089H196.275V29.2007H197.886V35.8954H196.275V33.0889H194.465V35.8954H192.866V29.2007H194.465Z" fill="#FF7819"/>
<path d="M201.915 36.0155C201.077 36.0155 200.416 35.7191 199.931 35.1261C199.45 34.5291 199.209 33.6858 199.209 32.596C199.209 31.4903 199.428 30.6269 199.865 30.0059C200.301 29.3849 200.911 29.0745 201.693 29.0745C202.422 29.0745 202.997 29.3408 203.417 29.8737C203.839 30.4026 204.05 31.1457 204.05 32.1033V32.9566H200.833C200.845 33.5535 200.967 33.9983 201.199 34.2908C201.432 34.5792 201.752 34.7235 202.162 34.7235C202.683 34.7235 203.215 34.5612 203.76 34.2367V35.5528C203.247 35.8612 202.632 36.0155 201.915 36.0155ZM201.68 30.3064C201.451 30.3064 201.264 30.4286 201.115 30.6729C200.967 30.9133 200.881 31.288 200.856 31.7968H202.48C202.472 31.308 202.398 30.9374 202.258 30.685C202.117 30.4326 201.924 30.3064 201.68 30.3064Z" fill="#FF7819"/>
<path d="M208.301 36.0155C208.013 36.0155 207.756 35.9514 207.531 35.8232C207.311 35.691 207.105 35.4606 206.913 35.1321H206.829C206.892 35.677 206.924 36.0055 206.924 36.1176V38.8521H205.313V29.2006H206.551L206.829 30.072H206.9C207.233 29.407 207.716 29.0745 208.349 29.0745C208.959 29.0745 209.436 29.3769 209.78 29.9818C210.124 30.5829 210.297 31.4342 210.297 32.536C210.297 33.6216 210.119 34.473 209.762 35.0901C209.405 35.7071 208.919 36.0155 208.301 36.0155ZM207.808 30.4326C207.495 30.4326 207.269 30.5789 207.129 30.8713C206.993 31.1598 206.92 31.6405 206.913 32.3136V32.5239C206.913 33.2611 206.982 33.798 207.123 34.1345C207.263 34.4711 207.495 34.6393 207.82 34.6393C208.381 34.6393 208.662 33.9302 208.662 32.5119C208.662 31.8148 208.591 31.294 208.452 30.9494C208.315 30.6048 208.101 30.4326 207.808 30.4326Z" fill="#FF7819"/>
<path d="M215.108 29.2007V30.4928H213.226V35.8954H211.626V29.2007H215.108Z" fill="#FF7819"/>
<path d="M217.706 29.2007V32.3016C217.706 32.6862 217.658 33.3253 217.561 34.2187L219.738 29.2007H221.697V35.8954H220.207V32.7463C220.207 32.2736 220.253 31.6366 220.345 30.8354L218.163 35.8954H216.22V29.2007H217.706Z" fill="#FF7819"/>
<path d="M225.739 36.0155C224.901 36.0155 224.24 35.7191 223.755 35.1261C223.273 34.5291 223.033 33.6858 223.033 32.596C223.033 31.4903 223.252 30.6269 223.689 30.0059C224.125 29.3849 224.734 29.0745 225.516 29.0745C226.246 29.0745 226.82 29.3408 227.241 29.8737C227.663 30.4026 227.873 31.1457 227.873 32.1033V32.9566H224.656C224.669 33.5535 224.791 33.9983 225.023 34.2908C225.256 34.5792 225.576 34.7235 225.985 34.7235C226.507 34.7235 227.039 34.5612 227.584 34.2367V35.5528C227.071 35.8612 226.456 36.0155 225.739 36.0155ZM225.504 30.3064C225.275 30.3064 225.087 30.4286 224.939 30.6729C224.791 30.9133 224.705 31.288 224.68 31.7968H226.303C226.296 31.308 226.221 30.9374 226.082 30.685C225.941 30.4326 225.748 30.3064 225.504 30.3064Z" fill="#FF7819"/>
<path d="M230.621 29.2008V32.3018C230.621 32.6864 230.573 33.3255 230.478 34.2189L232.654 29.2008H234.614V35.8955H233.123V32.7465C233.123 32.2738 233.169 31.6367 233.261 30.8355L231.079 35.8955H229.137V29.2008H230.621ZM234.067 26.4905C233.987 27.1636 233.766 27.6563 233.405 27.9688C233.048 28.2814 232.522 28.4377 231.824 28.4377C231.143 28.4377 230.632 28.2854 230.291 27.9808C229.95 27.6724 229.748 27.1756 229.684 26.4905H231.012C231.057 26.8912 231.141 27.1616 231.265 27.3018C231.393 27.4421 231.592 27.5121 231.86 27.5121C232.125 27.5121 232.321 27.432 232.449 27.2717C232.581 27.1115 232.67 26.8511 232.714 26.4905H234.067Z" fill="#FF7819"/>
</g>
</g>
<defs>
<clipPath id="clip0_18_3052">
<rect width="236" height="40" fill="white"/>
</clipPath>
</defs>
</svg>
