<svg width="20" height="20" viewBox="0 0 20 20" fill="none" xmlns="http://www.w3.org/2000/svg">
    <path fill-rule="evenodd" clip-rule="evenodd" d="M5.97227 2.6333H14.028C14.471 2.63329 14.845 2.63328 15.1515 2.65834C15.4727 2.68459 15.7806 2.7418 16.0739 2.89125C16.5185 3.11777 16.8816 3.47927 17.1089 3.92534C17.2583 4.21856 17.3154 4.52661 17.3416 4.84747C17.3667 5.15377 17.3666 5.52746 17.3666 5.96954V14.0308C17.3666 14.4729 17.3667 14.8464 17.3416 15.1526C17.3154 15.4734 17.2582 15.7812 17.1089 16.0743C16.8818 16.52 16.5189 16.8821 16.0739 17.1089C15.7808 17.2582 15.473 17.3154 15.1522 17.3416C14.846 17.3667 14.4725 17.3666 14.0304 17.3666H5.96954C5.52746 17.3666 5.15377 17.3667 4.84747 17.3416C4.52661 17.3154 4.21856 17.2583 3.92534 17.1089C3.47963 16.8818 3.11795 16.5193 2.89125 16.0743C2.74178 15.781 2.68458 15.4729 2.65833 15.1517C2.63328 14.8451 2.63329 14.471 2.6333 14.028V5.97227C2.63329 5.52929 2.63328 5.15501 2.65833 4.84831C2.68457 4.52707 2.74174 4.21877 2.89125 3.92534C3.11815 3.48002 3.48002 3.11815 3.92534 2.89125C4.21877 2.74174 4.52707 2.68457 4.84831 2.65833C5.15501 2.63328 5.52929 2.63329 5.97227 2.6333ZM4.96228 4.05369C4.7275 4.07286 4.62402 4.10652 4.56093 4.13866C4.37904 4.23134 4.23134 4.37904 4.13866 4.56093C4.10652 4.62402 4.07286 4.7275 4.05369 4.96228C4.03385 5.20518 4.0333 5.52188 4.0333 6.00013V14.0001C4.0333 14.4784 4.03385 14.7949 4.05368 15.0377C4.07285 15.2722 4.10648 15.3756 4.13866 15.4387C4.23154 15.621 4.37943 15.769 4.56093 15.8615C4.62387 15.8935 4.72715 15.9271 4.96149 15.9463C5.20396 15.9661 5.52005 15.9666 5.99739 15.9666H14.0025C14.4799 15.9666 14.7958 15.9661 15.0381 15.9463C15.2721 15.9271 15.3753 15.8936 15.4383 15.8615C15.6206 15.7686 15.769 15.6203 15.8615 15.4387C15.8936 15.3757 15.9271 15.2725 15.9463 15.0385C15.9661 14.7962 15.9666 14.4803 15.9666 14.0029V5.99739C15.9666 5.52005 15.9661 5.20396 15.9463 4.96149C15.9271 4.72715 15.8935 4.62387 15.8615 4.56093C15.7692 4.37979 15.621 4.23173 15.4383 4.13866C15.3751 4.10646 15.2718 4.07284 15.0374 4.05368C14.7948 4.03385 14.4784 4.0333 14.0001 4.0333H6.00013C5.52188 4.0333 5.20518 4.03385 4.96228 4.05369ZM13.7814 6.96221C14.0784 7.20971 14.1186 7.6511 13.8711 7.9481L9.70439 12.9481C9.57848 13.0992 9.39482 13.1903 9.19835 13.1992C9.00188 13.2082 8.81073 13.134 8.67166 12.9949L6.17166 10.4949C5.89829 10.2216 5.89829 9.77836 6.17166 9.50499C6.44503 9.23163 6.88824 9.23163 7.16161 9.50499L9.1196 11.463L12.7955 7.05184C13.043 6.75485 13.4844 6.71472 13.7814 6.96221Z" fill="#1A47A9"/>
</svg>
