<svg width="20" height="20" viewBox="0 0 20 20" fill="none" xmlns="http://www.w3.org/2000/svg">
    <path fill-rule="evenodd" clip-rule="evenodd" d="M6.80577 1.80005L10.5647 1.80005C10.665 1.80005 10.7571 1.80005 10.8398 1.8008C11.0821 1.80301 11.3019 1.81087 11.5292 1.86544C11.7713 1.92355 12.0019 2.0195 12.2132 2.14897C12.4537 2.29635 12.6542 2.49708 12.8978 2.74104C12.9127 2.75598 12.9278 2.77107 12.943 2.78633L15.5476 5.39089C15.5618 5.40514 15.5759 5.41923 15.5899 5.43317C15.8359 5.67886 16.0362 5.87893 16.1841 6.12029C16.3135 6.33149 16.4096 6.56229 16.4677 6.80441C16.5222 7.03128 16.5303 7.25069 16.5327 7.49338C16.5335 7.57702 16.5335 7.66998 16.5335 7.77145V14.8643C16.5335 15.3063 16.5335 15.6798 16.5085 15.986C16.4822 16.3068 16.4251 16.6146 16.2757 16.9077C16.0486 17.3534 15.6857 17.7156 15.2408 17.9423C14.9476 18.0916 14.6398 18.1488 14.319 18.175C14.0128 18.2001 13.6393 18.2001 13.1973 18.2001L6.80306 18.2001C6.36098 18.2001 5.98728 18.2001 5.68097 18.175C5.36012 18.1488 5.05206 18.0917 4.75884 17.9423C4.31312 17.7152 3.95145 17.3527 3.72475 16.9077C3.57528 16.6144 3.51808 16.3063 3.49183 15.9851C3.46678 15.6785 3.46679 15.3044 3.4668 14.8614V5.13902C3.46679 4.69604 3.46678 4.32176 3.49183 4.01506C3.51807 3.69382 3.57524 3.38552 3.72475 3.09209C3.95165 2.64677 4.31352 2.2849 4.75884 2.058C5.05226 1.90849 5.36057 1.85132 5.68181 1.82508C5.98851 1.80003 6.36279 1.80004 6.80577 1.80005ZM10.1335 3.20005H6.83363C6.35537 3.20005 6.03868 3.20059 5.79577 3.22043C5.561 3.23961 5.45751 3.27326 5.39442 3.30541C5.21253 3.39809 5.06484 3.54578 4.97216 3.72767C4.94001 3.79076 4.90636 3.89425 4.88718 4.12903C4.86734 4.37193 4.8668 4.68863 4.8668 5.16688V14.8335C4.8668 15.3118 4.86734 15.6283 4.88718 15.8711C4.90635 16.1056 4.93998 16.209 4.97216 16.2722C5.06504 16.4544 5.21293 16.6024 5.39442 16.6949C5.45737 16.7269 5.56065 16.7605 5.795 16.7797C6.03747 16.7995 6.35357 16.8001 6.83092 16.8001L13.1694 16.8001C13.6467 16.8001 13.9626 16.7995 14.2049 16.7797C14.439 16.7606 14.5421 16.727 14.6052 16.6949C14.7874 16.602 14.9358 16.4537 15.0283 16.2722C15.0604 16.2091 15.094 16.106 15.1131 15.8719C15.1329 15.6296 15.1335 15.3137 15.1335 14.8364V8.20005H13.4697C13.0276 8.20006 12.6539 8.20007 12.3476 8.17504C12.0268 8.14882 11.7187 8.09168 11.4255 7.94228C10.9796 7.71507 10.618 7.35221 10.3914 6.9075C10.2419 6.61415 10.1847 6.30608 10.1585 5.9849C10.1334 5.67835 10.1335 5.30423 10.1335 4.86129V3.20005ZM14.9551 6.80005C14.901 6.72845 14.8049 6.62812 14.5576 6.38084L11.9531 3.77627C11.7055 3.52871 11.605 3.43219 11.5335 3.37807V4.83338C11.5335 5.31165 11.534 5.62815 11.5538 5.87086C11.573 6.10536 11.6066 6.20874 11.6388 6.27192C11.7318 6.45442 11.8798 6.6025 12.0611 6.69487C12.124 6.72694 12.2273 6.76054 12.4617 6.77969C12.7041 6.79951 13.0202 6.80005 13.4976 6.80005H14.9551ZM6.80013 12.5C6.80013 12.1135 7.11353 11.8 7.50013 11.8H12.5001C12.8867 11.8 13.2001 12.1135 13.2001 12.5C13.2001 12.8866 12.8867 13.2 12.5001 13.2H7.50013C7.11353 13.2 6.80013 12.8866 6.80013 12.5Z" fill="#FF6900"/>
</svg>
