<svg width="16" height="16" viewBox="0 0 20 20" fill="none" xmlns="http://www.w3.org/2000/svg">
    <path fill-rule="evenodd" clip-rule="evenodd" d="M4.07875 3.20005C3.59322 3.20005 3.1998 3.59349 3.1998 4.07882C3.1998 11.1045 8.89538 16.8 15.921 16.8C16.4063 16.8 16.7998 16.4066 16.7998 15.921L16.8002 13.6283C16.8002 13.6283 16.8002 13.6284 16.8002 13.6283C16.8001 13.2331 16.5596 12.8778 16.1927 12.731C16.1927 12.7309 16.1928 12.731 16.1927 12.731L13.9957 11.8525C13.6659 11.7206 13.2907 11.7799 13.0181 12.0069C13.018 12.007 13.0182 12.0069 13.0181 12.0069L12.4511 12.4799C11.5109 13.2633 10.1274 13.2014 9.26166 12.3357L7.66501 10.7376C6.79997 9.87253 6.73545 8.49003 7.5195 7.54916L7.99232 6.98217C7.99227 6.98223 7.99237 6.98211 7.99232 6.98217C8.21985 6.70899 8.27951 6.33342 8.148 6.00445C8.14797 6.00439 8.14802 6.00451 8.148 6.00445L7.26866 3.80789C7.12186 3.44088 6.76634 3.20005 6.37106 3.20005H4.07875ZM1.7998 4.07882C1.7998 2.8201 2.82022 1.80005 4.07875 1.80005H6.37106C7.33874 1.80005 8.20893 2.38915 8.56838 3.28758C8.56836 3.28752 8.56841 3.28764 8.56838 3.28758L9.44772 5.48414C9.77079 6.29182 9.62394 7.21109 9.06783 7.87843L8.59501 8.44541C8.59496 8.44548 8.59506 8.44535 8.59501 8.44541C8.27555 8.82896 8.301 9.39366 8.65496 9.74762L10.2516 11.3457C10.605 11.6991 11.1703 11.7247 11.5546 11.4045L12.1214 10.9318C12.7893 10.3752 13.7085 10.2298 14.5155 10.5525C14.5154 10.5525 14.5155 10.5525 14.5155 10.5525L16.7125 11.431C17.6111 11.7904 18.2002 12.6606 18.2002 13.6283L18.1998 15.921C18.1998 15.921 18.1998 15.9211 18.1998 15.921C18.1997 17.1795 17.1797 18.2 15.921 18.2C8.12219 18.2 1.7998 11.8777 1.7998 4.07882Z" fill="#1A47A9"/>
</svg>
