<svg width="20" height="20" viewBox="0 0 20 20" fill="none" xmlns="http://www.w3.org/2000/svg">
    <path fill-rule="evenodd" clip-rule="evenodd" d="M10.1389 2.6333H14.028C14.471 2.63329 14.845 2.63328 15.1515 2.65834C15.4727 2.68459 15.7806 2.7418 16.0739 2.89125C16.5185 3.11777 16.8816 3.47927 17.1089 3.92534C17.2583 4.21856 17.3154 4.52661 17.3416 4.84747C17.3667 5.15377 17.3666 5.52746 17.3666 5.96954V14.0308C17.3666 14.4729 17.3667 14.8464 17.3416 15.1526C17.3154 15.4734 17.2582 15.7812 17.1089 16.0743C16.8818 16.52 16.5189 16.8821 16.0739 17.1089C15.7808 17.2582 15.473 17.3154 15.1522 17.3416C14.846 17.3667 14.4725 17.3666 14.0304 17.3666H10.1362C9.69413 17.3666 9.32043 17.3667 9.01413 17.3416C8.69328 17.3154 8.38523 17.2583 8.092 17.1089C7.64608 16.8816 7.28451 16.5188 7.05792 16.0741C6.90845 15.7807 6.85125 15.4727 6.825 15.1515C6.79995 14.8449 6.79996 14.4708 6.79997 14.0279L6.79997 13.9583C6.79997 13.5717 7.11337 13.2583 7.49997 13.2583C7.88657 13.2583 8.19997 13.5717 8.19997 13.9583V14C8.19997 14.4782 8.20051 14.7947 8.22035 15.0374C8.23951 15.2719 8.27314 15.3753 8.30533 15.4385C8.39832 15.621 8.54631 15.7691 8.72759 15.8615C8.79054 15.8935 8.89382 15.9271 9.12816 15.9463C9.37063 15.9661 9.68672 15.9666 10.1641 15.9666H14.0025C14.4799 15.9666 14.7958 15.9661 15.0381 15.9463C15.2721 15.9271 15.3753 15.8936 15.4383 15.8615C15.6206 15.7686 15.769 15.6203 15.8615 15.4387C15.8936 15.3757 15.9271 15.2725 15.9463 15.0385C15.9661 14.7962 15.9666 14.4803 15.9666 14.0029V5.99739C15.9666 5.52005 15.9661 5.20396 15.9463 4.96149C15.9271 4.72715 15.8935 4.62387 15.8615 4.56093C15.7692 4.37979 15.621 4.23173 15.4383 4.13866C15.3751 4.10646 15.2718 4.07284 15.0374 4.05368C14.7948 4.03385 14.4784 4.0333 14.0001 4.0333H10.1668C9.68854 4.0333 9.37185 4.03385 9.12894 4.05369C8.89417 4.07286 8.79068 4.10652 8.72759 4.13866C8.5457 4.23134 8.39801 4.37904 8.30533 4.56093C8.27318 4.62402 8.23953 4.7275 8.22035 4.96228C8.20051 5.20518 8.19997 5.52188 8.19997 6.00013V6.04046C8.19997 6.42706 7.88657 6.74046 7.49997 6.74046C7.11337 6.74046 6.79997 6.42706 6.79997 6.04046L6.79997 5.97227C6.79996 5.52929 6.79995 5.15501 6.825 4.84831C6.85124 4.52707 6.90841 4.21877 7.05792 3.92534C7.28482 3.48002 7.64669 3.11815 8.092 2.89125C8.38543 2.74174 8.69374 2.68457 9.01497 2.65833C9.32168 2.63328 9.69596 2.63329 10.1389 2.6333ZM9.50499 7.00499C9.77836 6.73163 10.2216 6.73163 10.4949 7.00499L12.9949 9.50499C13.2683 9.77836 13.2683 10.2216 12.9949 10.4949L10.4949 12.9949C10.2216 13.2683 9.77836 13.2683 9.50499 12.9949C9.23163 12.7216 9.23163 12.2784 9.50499 12.005L10.81 10.7H3.3333C2.9467 10.7 2.6333 10.3866 2.6333 9.99997C2.6333 9.61337 2.9467 9.29997 3.3333 9.29997H10.81L9.50499 7.99494C9.23163 7.72158 9.23163 7.27836 9.50499 7.00499Z" fill="#FFFFFF"/>
</svg>
