<svg width="24" height="24" viewBox="0 0 20 20" fill="none" xmlns="http://www.w3.org/2000/svg">
    <path fill-rule="evenodd" clip-rule="evenodd" d="M5.97243 2.6333H7.36154C7.80447 2.63329 8.17852 2.63328 8.485 2.65834C8.80615 2.68459 9.11411 2.7418 9.40742 2.89125C9.85198 3.11777 10.2151 3.47927 10.4424 3.92534C10.5918 4.21856 10.6489 4.52661 10.6751 4.84746C10.7002 5.15377 10.7001 5.52746 10.7001 5.96954V7.00847C10.9138 6.85156 11.1381 6.72036 11.4002 6.64136C11.8456 6.50708 12.321 6.50708 12.7664 6.64136C13.0579 6.7292 13.3026 6.88153 13.5382 7.06214C13.7625 7.23409 14.0165 7.4623 14.3158 7.73114L16.2502 9.469C16.2663 9.48349 16.2823 9.49782 16.2981 9.512C16.5758 9.76118 16.8025 9.96454 16.9701 10.2165C17.1172 10.4374 17.2258 10.6813 17.2919 10.9381C17.3672 11.2314 17.3671 11.5362 17.3668 11.9098C17.3668 11.9308 17.3668 11.952 17.3668 11.9734V15.9666H18.3335C18.7201 15.9666 19.0335 16.28 19.0335 16.6666C19.0335 17.0532 18.7201 17.3666 18.3335 17.3666H1.6668C1.2802 17.3666 0.966797 17.0532 0.966797 16.6666C0.966797 16.28 1.2802 15.9666 1.6668 15.9666H2.63346L2.63346 5.97227C2.63345 5.52929 2.63344 5.15501 2.65849 4.84831C2.68473 4.52707 2.74191 4.21877 2.89141 3.92534C3.11832 3.48002 3.48018 3.11815 3.9255 2.89125C4.21893 2.74174 4.52723 2.68457 4.84847 2.65833C5.15517 2.63328 5.52945 2.63329 5.97243 2.6333ZM4.03346 15.9666H6.80013V11.9734C6.80013 11.9502 6.80011 11.9272 6.8001 11.9045C6.79982 11.5342 6.79959 11.2302 6.87468 10.9381C6.94078 10.681 7.04958 10.4372 7.19652 10.2165C7.36363 9.96536 7.59055 9.76179 7.8662 9.51452C7.88293 9.49951 7.89983 9.48434 7.91692 9.469L9.30013 8.22633V5.99739C9.30013 5.52005 9.29959 5.20396 9.27977 4.96149C9.26062 4.72715 9.22702 4.62387 9.19495 4.56093C9.10266 4.37979 8.95448 4.23173 8.77183 4.13866C8.70862 4.10646 8.60529 4.07284 8.37093 4.05368C8.12831 4.03385 7.8119 4.0333 7.33363 4.0333H6.00029C5.52204 4.0333 5.20534 4.03385 4.96244 4.05369C4.72766 4.07286 4.62418 4.10652 4.56109 4.13866C4.3792 4.23134 4.2315 4.37904 4.13882 4.56093C4.10668 4.62402 4.07302 4.7275 4.05385 4.96228C4.03401 5.20518 4.03346 5.52188 4.03346 6.00013V15.9666ZM8.20013 15.9666H15.9668V11.9734C15.9668 11.5007 15.9613 11.3854 15.9359 11.2867C15.9089 11.1817 15.8646 11.0822 15.8046 10.9921C15.7482 10.9073 15.6663 10.8264 15.3145 10.5104L13.3979 8.78851C13.0748 8.49829 12.8619 8.30768 12.6865 8.17324C12.518 8.04408 12.4271 8.00129 12.3624 7.98179C12.1804 7.92694 11.9862 7.92694 11.8042 7.98179C11.7397 8.00122 11.6491 8.04391 11.4808 8.17291C11.3057 8.3072 11.0931 8.49753 10.7705 8.78733L8.85255 10.5104C8.50049 10.8267 8.41825 10.9076 8.36201 10.9921C8.3019 11.0824 8.25754 11.1819 8.23058 11.2867C8.20528 11.3852 8.20013 11.4996 8.20013 11.9734V15.9666Z" fill="#1A47A9"/>
</svg>
