<svg width="30" height="40" viewBox="0 0 30 40" fill="none" xmlns="http://www.w3.org/2000/svg">
    <path fill-rule="evenodd" clip-rule="evenodd" d="M15.1326 0.608887C11.1333 4.3064 0.263672 13.6369 0.263672 23.7645C0.263672 32.0431 6.92801 38.7658 15.1326 38.7658C23.3354 38.7658 29.9998 32.0431 29.9998 23.7645C29.9998 13.6369 19.1301 4.3064 15.1326 0.608887ZM15.1326 7.61175C12.3404 10.1942 4.75015 16.7092 4.75015 23.7807C4.75015 29.5618 9.40319 34.257 15.1326 34.257C20.8603 34.257 25.5133 29.5618 25.5133 23.7807C25.5133 16.7092 17.9248 10.1942 15.1326 7.61175Z" fill="#1A47A9"/>
    <path d="M15.0897 21.4547C13.4671 22.042 9.88507 23.5546 7.67676 21.9155C8.38599 27.0859 12.799 25.951 15.174 25.1937C16.5476 24.7744 20.3803 23.0937 22.587 24.7311C21.8795 19.5626 17.4646 20.5728 15.0897 21.4547Z" fill="#FF6900" stroke="#FF6900" stroke-width="0.211975"/>
</svg>
